<?xml version="1.0" standalone="no"?>
<!DOCTYPE svg PUBLIC "-//W3C//DTD SVG 20010904//EN"
 "http://www.w3.org/TR/2001/REC-SVG-20010904/DTD/svg10.dtd">
<svg version="1.0" xmlns="http://www.w3.org/2000/svg"
 width="500.000000pt" height="500.000000pt" viewBox="0 0 500.000000 500.000000"
 preserveAspectRatio="xMidYMid meet">

<g transform="translate(0.000000,500.000000) scale(0.100000,-0.100000)"
fill="#000000" stroke="none">
<path d="M2261 4809 c-404 -43 -818 -205 -1151 -453 -113 -84 -317 -279 -407
-391 -266 -328 -434 -711 -500 -1135 -24 -160 -24 -500 0 -660 74 -478 290
-927 602 -1250 72 -74 192 -189 176 -168 -10 14 -7 17 31 23 98 15 108 18 108
31 0 8 33 50 74 94 77 83 106 131 106 172 0 39 27 67 71 74 21 4 39 12 39 19
0 7 13 46 30 86 31 77 91 149 142 170 l28 12 -90 91 c-205 206 -336 458 -386
736 -22 126 -22 354 0 480 35 197 124 406 242 570 66 92 114 142 114 118 0
-41 33 -265 41 -281 6 -9 19 -77 29 -150 20 -135 44 -254 54 -265 3 -3 7 12 7
34 1 22 9 -12 19 -77 31 -203 55 -255 137 -296 57 -27 62 -28 213 -26 164 1
220 14 291 64 36 25 94 115 161 249 46 91 56 105 78 105 22 0 33 -15 83 -110
110 -208 138 -240 237 -269 104 -31 316 -16 394 27 72 40 97 107 126 347 19
154 19 154 14 50 -2 -60 -1 -100 4 -95 10 11 47 196 57 285 4 30 15 89 26 130
10 41 25 126 32 189 l12 113 40 -43 c234 -255 367 -660 335 -1021 -30 -339
-165 -631 -402 -867 l-89 -88 29 -50 c16 -27 37 -72 46 -100 15 -45 26 -57 98
-109 134 -97 176 -140 193 -197 8 -28 15 -63 15 -78 0 -66 43 -101 160 -132
30 -8 62 -18 70 -21 19 -8 230 201 323 320 245 312 399 665 469 1074 30 169
32 528 5 695 -85 519 -308 957 -673 1319 -481 479 -1184 725 -1863 655z m902
-1021 c53 -63 69 -93 90 -173 22 -85 35 -162 47 -300 8 -91 18 -139 40 -197
17 -43 30 -96 30 -119 l0 -42 -20 25 c-12 16 -41 31 -81 43 -72 20 -79 20
-914 14 -599 -5 -677 -11 -717 -53 l-20 -21 7 55 c4 30 18 80 32 110 19 42 27
82 34 170 22 284 53 387 157 519 19 24 21 24 54 8 45 -21 113 -36 166 -37 28
0 55 -8 80 -24 44 -29 109 -47 154 -45 18 2 49 -6 68 -16 21 -11 55 -17 89
-17 31 0 61 -4 67 -9 22 -18 69 -26 94 -17 23 9 89 22 170 32 56 8 118 38 209
104 97 70 96 70 164 -10z m-322 -1000 l7 -28 -86 0 c-47 0 -83 3 -79 6 3 4 28
17 54 30 62 31 94 28 104 -8z m364 19 c48 -13 49 -14 20 -19 -16 -4 -58 -10
-91 -13 l-62 -7 5 26 c5 22 10 26 42 26 20 0 59 -6 86 -13z m-1298 -27 c9 -24
9 -30 -2 -30 -25 0 -120 22 -140 33 -19 10 -19 10 0 18 11 4 45 8 75 8 53 1
56 -1 67 -29z m372 16 c15 -8 33 -21 39 -29 10 -11 5 -16 -27 -25 -21 -7 -60
-12 -86 -12 -41 0 -46 2 -40 18 4 9 10 27 12 40 4 18 12 22 40 22 19 0 46 -6
62 -14z m1001 -108 c-1 -127 -26 -180 -105 -221 -33 -18 -58 -21 -150 -22 -67
0 -129 6 -160 14 -70 21 -133 88 -174 185 -42 100 -41 107 7 94 48 -14 393 -3
487 16 39 7 76 14 83 15 9 1 12 -21 12 -81z m-890 57 c0 -22 -39 -125 -66
-176 -15 -27 -46 -67 -70 -88 -51 -48 -107 -61 -266 -64 -100 -1 -119 2 -161
22 -74 36 -100 89 -105 213 -4 79 -2 98 10 98 7 0 63 -11 123 -25 119 -27 200
-30 340 -15 121 14 145 19 145 35 0 7 11 13 25 13 14 0 25 -6 25 -13z"/>
<path d="M1842 3233 c-77 -31 -74 -41 4 -18 70 20 102 15 189 -31 83 -44 226
-106 232 -100 7 7 -97 81 -153 109 -61 31 -166 67 -191 67 -10 -1 -46 -13 -81
-27z"/>
<path d="M2980 3179 c-85 -23 -204 -74 -222 -97 -11 -13 -8 -14 22 -7 19 4 67
18 105 32 39 13 98 34 132 46 l63 21 77 -32 c87 -36 80 -20 -11 27 -68 36 -68
36 -166 10z"/>
<path d="M2803 203 c9 -2 23 -2 30 0 6 3 -1 5 -18 5 -16 0 -22 -2 -12 -5z"/>
<path d="M2713 193 c9 -2 23 -2 30 0 6 3 -1 5 -18 5 -16 0 -22 -2 -12 -5z"/>
<path d="M2423 183 c42 -2 112 -2 155 0 42 1 7 3 -78 3 -85 0 -120 -2 -77 -3z"/>
</g>
</svg>
